<svg width="268" height="175" viewBox="0 0 268 175" fill="none" xmlns="http://www.w3.org/2000/svg">
<path fill-rule="evenodd" clip-rule="evenodd" d="M115.522 0C138.516 0 158.553 12.6601 169.044 31.3902C176.023 28.6279 183.631 27.1099 191.593 27.1099C221.261 27.1099 246.007 48.1863 251.675 76.1832C261.411 85.6326 267.461 98.8591 267.461 113.499C267.461 142.215 244.182 165.494 215.466 165.494C206.203 165.494 197.506 163.072 189.974 158.826C179.081 168.75 164.598 174.8 148.702 174.8C129.129 174.8 111.699 165.627 100.476 151.346C89.8531 160.181 76.1978 165.494 61.3016 165.494C27.4457 165.494 0 138.048 0 104.192C0 71.787 25.144 45.2544 56.9865 43.0401C64.758 18.1028 88.026 0 115.522 0Z" fill="#019247"/>
</svg>
